<svg xmlns="http://www.w3.org/2000/svg" viewBox="0 0 100 100" width="100" height="100">
  <circle cx="50" cy="50" r="10" fill="#e5989b" />
  <!-- Petals -->
  <path d="M50 40 C40 20, 60 20, 50 40 Z" fill="#ffb5a7" opacity="0.9" />
  <path d="M50 60 C40 80, 60 80, 50 60 Z" fill="#ffb5a7" opacity="0.9" />
  <path d="M40 50 C20 40, 20 60, 40 50 Z" fill="#ffb5a7" opacity="0.9" />
  <path d="M60 50 C80 40, 80 60, 60 50 Z" fill="#ffb5a7" opacity="0.9" />
  <!-- Diagonal Petals -->
  <path d="M43 43 C28 28, 43 18, 43 43 Z" fill="#e8dff5" opacity="0.85" />
  <path d="M57 57 C72 72, 57 82, 57 57 Z" fill="#e8dff5" opacity="0.85" />
  <path d="M57 43 C72 28, 82 43, 57 43 Z" fill="#e8dff5" opacity="0.85" />
  <path d="M43 57 C28 72, 18 57, 43 57 Z" fill="#e8dff5" opacity="0.85" />
</svg>
